<svg preserveAspectRatio="xMinYMid slice" width="43" height="53" viewBox="0 0 187 39.58" fill="none" xmlns="http://www.w3.org/2000/svg"><g clip-path="url(#clip0_203_10990)"><path d="M28.0988 19.7883C30.5285 17.6789 32.118 14.6038 32.118 11.3031C32.118 5.13701 27.1435 0.110763 20.9918 0.00390625H0V5.64359H20.7936C23.921 5.64359 26.4657 8.18441 26.4657 11.307C26.4657 14.4296 23.4691 16.9704 20.7936 16.9704V22.6141C23.4731 22.6141 26.4657 25.0362 26.4657 28.2775C26.4657 31.5189 23.921 33.9409 20.7936 33.9409H0V39.5846H20.9918C27.1435 39.4738 32.118 34.4475 32.118 28.2815C32.118 24.9808 30.5285 21.9057 28.0988 19.7962" fill="#E6F0E9"/><path d="M20.7936 22.6094H0V28.2886H20.7936V22.6094Z" fill="#E6F0E9"/><path d="M20.7936 11.2871H0V16.9664H20.7936V11.2871Z" fill="#E6F0E9"/></g><defs><clipPath id="clip0_203_10990"><rect width="187" height="39.58" fill="white"/></clipPath></defs></svg>